<mxfile host="app.diagrams.net" modified="2023-01-25T03:55:28.941Z" agent="5.0 (Windows NT 10.0; Win64; x64) AppleWebKit/537.36 (KHTML, like Gecko) Chrome/109.0.0.0 Safari/537.36" etag="S5DpxgZYSCfbkd1macQ_" version="20.8.10" type="github">
  <diagram name="ページ1" id="WY0_n_wu10l-EoqTrqx6">
    <mxGraphModel dx="1050" dy="515" grid="1" gridSize="10" guides="1" tooltips="1" connect="1" arrows="1" fold="1" page="1" pageScale="1" pageWidth="827" pageHeight="1169" math="0" shadow="0">
      <root>
        <mxCell id="0" />
        <mxCell id="1" parent="0" />
        <mxCell id="4G7JvG1yIsIppaWCg9FY-34" value="" style="group" vertex="1" connectable="0" parent="1">
          <mxGeometry x="140" y="80" width="300" height="180" as="geometry" />
        </mxCell>
        <mxCell id="4G7JvG1yIsIppaWCg9FY-18" value="" style="whiteSpace=wrap;html=1;strokeColor=none;fillColor=#00CC00;" vertex="1" parent="4G7JvG1yIsIppaWCg9FY-34">
          <mxGeometry width="300" height="180" as="geometry" />
        </mxCell>
        <mxCell id="4G7JvG1yIsIppaWCg9FY-19" value="1" style="ellipse;whiteSpace=wrap;html=1;aspect=fixed;" vertex="1" parent="4G7JvG1yIsIppaWCg9FY-34">
          <mxGeometry x="30" y="14.999999999999998" width="44.99943750703116" height="44.99943750703116" as="geometry" />
        </mxCell>
        <mxCell id="4G7JvG1yIsIppaWCg9FY-20" value="2" style="ellipse;whiteSpace=wrap;html=1;aspect=fixed;" vertex="1" parent="4G7JvG1yIsIppaWCg9FY-34">
          <mxGeometry x="224.99999999999997" y="45" width="44.99943750703116" height="44.99943750703116" as="geometry" />
        </mxCell>
        <mxCell id="4G7JvG1yIsIppaWCg9FY-21" value="" style="ellipse;whiteSpace=wrap;html=1;aspect=fixed;fillColor=#000000;" vertex="1" parent="4G7JvG1yIsIppaWCg9FY-34">
          <mxGeometry x="75" y="29.999999999999996" width="14.999812502343717" height="14.999812502343717" as="geometry" />
        </mxCell>
        <mxCell id="4G7JvG1yIsIppaWCg9FY-22" value="" style="endArrow=classic;html=1;rounded=0;exitX=1;exitY=1;exitDx=0;exitDy=0;entryX=0;entryY=0.5;entryDx=0;entryDy=0;" edge="1" parent="4G7JvG1yIsIppaWCg9FY-34" source="4G7JvG1yIsIppaWCg9FY-21" target="4G7JvG1yIsIppaWCg9FY-33">
          <mxGeometry width="50" height="50" relative="1" as="geometry">
            <mxPoint x="164.99999999999997" y="225" as="sourcePoint" />
            <mxPoint x="210" y="59.99999999999999" as="targetPoint" />
          </mxGeometry>
        </mxCell>
        <mxCell id="4G7JvG1yIsIppaWCg9FY-23" value="" style="endArrow=none;html=1;rounded=0;exitX=0.001;exitY=0.83;exitDx=0;exitDy=0;exitPerimeter=0;entryX=1;entryY=0.833;entryDx=0;entryDy=0;entryPerimeter=0;strokeColor=#FFFFFF;" edge="1" parent="4G7JvG1yIsIppaWCg9FY-34" source="4G7JvG1yIsIppaWCg9FY-18" target="4G7JvG1yIsIppaWCg9FY-18">
          <mxGeometry width="50" height="50" relative="1" as="geometry">
            <mxPoint x="105" y="165" as="sourcePoint" />
            <mxPoint x="180" y="90" as="targetPoint" />
          </mxGeometry>
        </mxCell>
        <mxCell id="4G7JvG1yIsIppaWCg9FY-24" value="" style="rounded=0;whiteSpace=wrap;html=1;strokeColor=none;fillColor=#000000;" vertex="1" parent="4G7JvG1yIsIppaWCg9FY-34">
          <mxGeometry x="58.12499999999999" y="148.5" width="183.74999999999997" height="24" as="geometry" />
        </mxCell>
        <mxCell id="4G7JvG1yIsIppaWCg9FY-25" value="" style="endArrow=classic;html=1;rounded=0;exitX=0;exitY=1;exitDx=0;exitDy=0;entryX=0.5;entryY=0;entryDx=0;entryDy=0;dashed=1;" edge="1" parent="4G7JvG1yIsIppaWCg9FY-34" source="4G7JvG1yIsIppaWCg9FY-33" target="4G7JvG1yIsIppaWCg9FY-24">
          <mxGeometry width="50" height="50" relative="1" as="geometry">
            <mxPoint x="102.80330085890868" y="57.80330085890861" as="sourcePoint" />
            <mxPoint x="240.00000000000014" y="82.5" as="targetPoint" />
          </mxGeometry>
        </mxCell>
        <mxCell id="4G7JvG1yIsIppaWCg9FY-26" value="パス" style="text;html=1;strokeColor=none;fillColor=none;align=center;verticalAlign=middle;whiteSpace=wrap;rounded=0;" vertex="1" parent="4G7JvG1yIsIppaWCg9FY-34">
          <mxGeometry x="105" y="14.999999999999998" width="90" height="45" as="geometry" />
        </mxCell>
        <mxCell id="4G7JvG1yIsIppaWCg9FY-27" value="シュート？" style="text;html=1;strokeColor=none;fillColor=none;align=left;verticalAlign=middle;whiteSpace=wrap;rounded=0;" vertex="1" parent="4G7JvG1yIsIppaWCg9FY-34">
          <mxGeometry x="194.99999999999997" y="90" width="105" height="45" as="geometry" />
        </mxCell>
        <mxCell id="4G7JvG1yIsIppaWCg9FY-33" value="" style="ellipse;whiteSpace=wrap;html=1;aspect=fixed;fillColor=none;dashed=1;dashPattern=1 1;" vertex="1" parent="4G7JvG1yIsIppaWCg9FY-34">
          <mxGeometry x="210" y="59.99999999999999" width="14.999812502343717" height="14.999812502343717" as="geometry" />
        </mxCell>
      </root>
    </mxGraphModel>
  </diagram>
</mxfile>
